<?xml version="1.0" standalone="no"?>
<!DOCTYPE svg PUBLIC "-//W3C//DTD SVG 20010904//EN"
 "http://www.w3.org/TR/2001/REC-SVG-20010904/DTD/svg10.dtd">
<svg version="1.0" xmlns="http://www.w3.org/2000/svg"
 width="512.000000pt" height="512.000000pt" viewBox="0 0 512.000000 512.000000"
 preserveAspectRatio="xMidYMid meet">
<metadata>
Created by potrace 1.11, written by Peter Selinger 2001-2013
</metadata>
<g transform="translate(0.000000,512.000000) scale(0.100000,-0.100000)"
fill="#000000" stroke="none">
<path d="M203 5102 c-100 -35 -171 -115 -193 -216 -8 -36 -10 -710 -8 -2356
l3 -2305 21 -46 c31 -66 78 -114 142 -146 l57 -28 2335 0 2335 0 57 28 c64 32
111 80 142 146 l21 46 0 2335 0 2335 -28 57 c-32 64 -80 111 -146 142 l-46 21
-2320 2 c-2207 2 -2323 2 -2372 -15z m2597 -422 c240 -29 483 -101 694 -204
225 -110 389 -228 572 -410 182 -183 300 -348 410 -571 144 -296 214 -600 214
-935 0 -576 -217 -1099 -624 -1506 -406 -406 -932 -624 -1504 -624 -249 0
-441 30 -672 106 -784 256 -1349 951 -1450 1784 -13 109 -13 371 0 480 101
834 664 1526 1451 1784 135 44 284 78 414 95 100 12 395 13 495 1z"/>
<path d="M2404 4259 c-666 -59 -1247 -518 -1459 -1152 -247 -738 25 -1534 670
-1966 850 -569 2012 -260 2470 657 274 546 233 1201 -106 1707 -293 437 -752
708 -1280 755 -127 11 -163 11 -295 -1z m-478 -866 c67 -22 163 -119 187 -188
73 -210 -78 -427 -297 -429 -153 -1 -273 94 -312 246 -39 149 46 311 193 368
61 24 163 25 229 3z m1494 -2 c77 -29 134 -82 169 -154 40 -82 47 -139 27
-215 -32 -128 -110 -206 -237 -238 -77 -20 -134 -13 -216 27 -142 68 -209 239
-156 395 22 65 119 164 183 187 64 22 168 21 230 -2z m207 -1308 c-76 -160
-154 -270 -266 -376 -220 -207 -497 -317 -801 -317 -302 0 -579 109 -799 314
-104 98 -214 252 -269 379 l-21 47 1089 0 1089 0 -22 -47z"/>
</g>
</svg>
